<svg width="36" height="46" viewBox="0 0 36 46" fill="none" xmlns="http://www.w3.org/2000/svg">
<path d="M17.8116 45.1226L5.50957 32.1591L5.50949 32.159C-1.26616 25.0257 -1.26623 13.3405 5.50954 6.20278C12.0148 -0.649993 22.4894 -0.91635 29.3031 5.39758C29.6254 5.69623 29.585 6.22303 29.2085 6.48985L23.6635 10.4191C22.006 9.19359 19.9891 8.47335 17.8116 8.47335C12.1774 8.47335 7.63437 13.2828 7.63437 19.1809C7.63437 25.0833 12.1774 29.8928 17.8116 29.8928C22.9656 29.8928 27.2035 25.8733 27.8942 20.6737L29.3442 19.0665L29.3451 19.0656L34.0813 13.867C34.2135 13.7219 34.4347 13.7823 34.4823 13.9527C36.2284 20.2042 34.77 27.2582 30.1138 32.159L30.1137 32.1591L17.8116 45.1226Z" fill="url(#paint0_linear_1298_1161)" stroke="white" stroke-width="0.5"/>
<path fill-rule="evenodd" clip-rule="evenodd" d="M32.8349 7.0839L17.8242 17.7155L19.8146 21.6914L23.8574 21.2956L34.9863 9.08058C34.9863 9.08058 36.0146 8.27147 35.0028 7.06215C33.9952 5.84848 32.8349 7.0839 32.8349 7.0839Z" fill="url(#paint1_linear_1298_1161)"/>
<path fill-rule="evenodd" clip-rule="evenodd" d="M10.4027 18.1593L17.109 26.2373C17.109 26.2373 17.8853 27.638 19.0457 26.4505C20.2061 25.2629 26.0163 18.9553 26.0163 18.9553C26.0163 18.9553 23.2991 21.8481 20.8585 18.9684C18.418 16.0886 17.4187 14.9315 17.4187 14.9315C17.4187 14.9315 16.6382 13.6526 15.0979 14.1702C13.5576 14.6922 10.4853 15.5884 10.4853 15.5884C10.4853 15.5884 8.58986 15.9886 10.4068 18.1593H10.4027Z" fill="url(#paint2_linear_1298_1161)"/>
<defs>
<linearGradient id="paint0_linear_1298_1161" x1="39.0561" y1="9.36107" x2="13.4059" y2="24.2926" gradientUnits="userSpaceOnUse">
<stop stop-color="#E93C00"/>
<stop offset="1" stop-color="#E86900"/>
</linearGradient>
<linearGradient id="paint1_linear_1298_1161" x1="35.3163" y1="7.54892" x2="21.9358" y2="20.0992" gradientUnits="userSpaceOnUse">
<stop stop-color="#E93C00"/>
<stop offset="1" stop-color="#E86900"/>
</linearGradient>
<linearGradient id="paint2_linear_1298_1161" x1="22.4827" y1="23.0031" x2="12.6656" y2="11.4047" gradientUnits="userSpaceOnUse">
<stop stop-color="#E93C00"/>
<stop offset="1" stop-color="#E86900"/>
</linearGradient>
</defs>
</svg>
