<svg width="18" height="20" viewBox="0 0 18 20" fill="none" xmlns="http://www.w3.org/2000/svg">
<g clip-path="url(#clip0_1054_1397)">
<path d="M8.9473 5C8.35743 5 7.7808 5.1955 7.29034 5.56177C6.79988 5.92804 6.41761 6.44863 6.19187 7.05772C5.96614 7.66681 5.90707 8.33703 6.02215 8.98363C6.13723 9.63024 6.42128 10.2242 6.83839 10.6904C7.25549 11.1565 7.78691 11.474 8.36545 11.6026C8.94399 11.7312 9.54367 11.6652 10.0886 11.4129C10.6336 11.1606 11.0994 10.7334 11.4271 10.1852C11.7548 9.63707 11.9298 8.9926 11.9298 8.33333C11.9298 7.44928 11.6155 6.60143 11.0562 5.97631C10.4969 5.35119 9.7383 5 8.9473 5ZM8.9473 10C8.65236 10 8.36405 9.90225 8.11882 9.71912C7.87359 9.53598 7.68245 9.27568 7.56959 8.97114C7.45672 8.6666 7.42719 8.33148 7.48473 8.00818C7.54227 7.68488 7.68429 7.38791 7.89284 7.15482C8.1014 6.92173 8.36711 6.763 8.65638 6.69869C8.94565 6.63438 9.24548 6.66739 9.51797 6.79353C9.79046 6.91968 10.0234 7.1333 10.1872 7.40738C10.3511 7.68146 10.4385 8.0037 10.4385 8.33333C10.4385 8.77536 10.2814 9.19928 10.0018 9.51184C9.7221 9.8244 9.3428 10 8.9473 10Z" fill="white"/>
<path d="M8.94637 20.0002C8.31852 20.0038 7.69904 19.8392 7.13979 19.5202C6.58055 19.2013 6.09782 18.7372 5.73203 18.1669C2.89049 13.786 1.44922 10.4927 1.44922 8.3777C1.44922 6.15541 2.23909 4.02414 3.64508 2.45274C5.05107 0.881338 6.958 -0.00146484 8.94637 -0.00146484C10.9347 -0.00146484 12.8417 0.881338 14.2477 2.45274C15.6536 4.02414 16.4435 6.15541 16.4435 8.3777C16.4435 10.4927 15.0022 13.786 12.1607 18.1669C11.7949 18.7372 11.3122 19.2013 10.7529 19.5202C10.1937 19.8392 9.57422 20.0038 8.94637 20.0002ZM8.94637 1.8177C7.38984 1.81969 5.89757 2.51164 4.79693 3.74176C3.6963 4.97188 3.07718 6.63972 3.0754 8.37937C3.0754 10.0544 4.48685 13.1519 7.04878 17.101C7.26627 17.4359 7.5516 17.7084 7.88142 17.8963C8.21124 18.0842 8.57617 18.1821 8.94637 18.1821C9.31657 18.1821 9.6815 18.0842 10.0113 17.8963C10.3411 17.7084 10.6265 17.4359 10.844 17.101C13.4059 13.1519 14.8173 10.0544 14.8173 8.37937C14.8156 6.63972 14.1964 4.97188 13.0958 3.74176C11.9952 2.51164 10.5029 1.81969 8.94637 1.8177Z" fill="white"/>
</g>
<defs>
<clipPath id="clip0_1054_1397">
<rect width="17.8947" height="20" fill="white"/>
</clipPath>
</defs>
</svg>
