<svg width="32" height="32" viewBox="0 0 32 32" fill="none" xmlns="http://www.w3.org/2000/svg">
<path d="M4.99721 2.99703C4.46749 3.00196 3.96086 3.21457 3.58627 3.58916C3.21169 3.96375 2.99907 4.47038 2.99414 5.0001V18.9989C2.99414 20.0912 3.90875 21.002 4.99721 21.002H8.00182C8.74258 21.002 9.39263 20.5749 9.74033 19.9627C10.4131 20.3784 11.0745 20.6203 11.5015 20.8659C12.5068 21.448 13.0208 23.0806 13.2589 24.7851C13.3761 25.6355 13.4403 26.4556 13.5462 27.1397C13.5991 27.4798 13.6482 27.7822 13.788 28.1148C13.8773 28.367 14.0404 28.5866 14.2561 28.745C14.4717 28.9034 14.73 28.9932 14.9974 29.0029C16.4827 29.0029 17.6997 28.4209 18.4745 27.529C19.253 26.6408 19.6158 25.5259 19.8124 24.4223C20.1298 22.6158 20.0089 21.0851 19.9484 19.9929H25.9954C27.6432 19.9929 29.0038 18.6399 29.0038 16.9958C29.0038 16.4138 28.8375 15.9754 28.6259 15.2951C28.4142 14.6111 28.1308 13.7872 27.8133 12.9066C27.1859 11.1454 26.4376 9.14985 25.9463 7.67967C25.7615 7.0472 25.4532 6.45761 25.0393 5.94494C24.7862 5.65163 24.4738 5.4154 24.1226 5.25186C23.7714 5.08833 23.3895 5.00123 23.0022 4.99632H10.9989C10.658 4.99944 10.3204 5.06212 10.0011 5.18151V4.99254C10.0011 3.90408 9.09406 2.99325 8.00182 2.99325L4.99721 2.99703ZM4.99721 5.0001H8.00182V18.9989H4.99721V5.0001ZM10.9989 6.99939H23.0022C23.2667 6.99939 23.3499 7.0523 23.5237 7.25639C23.7605 7.57833 23.9395 7.93895 24.0528 8.32217C24.5631 9.85282 25.3114 11.8446 25.9312 13.5831C26.2411 14.4523 26.5208 15.2573 26.7135 15.8885C26.91 16.5159 27.0045 17.0828 27.0045 16.9996C27.0071 17.132 26.9829 17.2635 26.9332 17.3863C26.8835 17.509 26.8094 17.6204 26.7154 17.7136C26.6214 17.8069 26.5095 17.8802 26.3864 17.9289C26.2633 17.9777 26.1316 18.001 25.9992 17.9974H18.9129C18.7807 17.9969 18.6498 18.0225 18.5276 18.0729C18.4054 18.1232 18.2944 18.1973 18.2009 18.2907C18.1075 18.3842 18.0334 18.4952 17.9831 18.6174C17.9327 18.7396 17.9071 18.8705 17.9076 19.0027C17.9076 20.1819 18.1646 22.2908 17.8509 24.0822C17.6921 24.9741 17.3974 25.7262 16.9703 26.2137C16.6009 26.6293 16.0933 26.8965 15.5417 26.9658C15.4396 26.3952 15.3716 25.4201 15.2431 24.5092C14.9823 22.646 14.491 20.2877 12.4993 19.135C11.7547 18.7079 11.0367 18.4547 10.6096 18.1599C10.1787 17.8651 10.0049 17.7064 10.0049 16.9996V8.0047C10.0049 7.43024 10.4282 6.99939 10.9989 6.99939Z" fill="black"/>
</svg>
