<svg width="32" height="32" viewBox="0 0 32 32" fill="none" xmlns="http://www.w3.org/2000/svg">
<path d="M4.99721 29.003C4.46749 28.998 3.96086 28.7854 3.58627 28.4108C3.21169 28.0363 2.99907 27.5296 2.99414 26.9999V13.0011C2.99414 11.9088 3.90875 10.998 4.99721 10.998H8.00182C8.74258 10.998 9.39263 11.4251 9.74033 12.0373C10.4131 11.6216 11.0745 11.3797 11.5015 11.1341C12.5068 10.552 13.0208 8.91936 13.2589 7.21486C13.3761 6.3645 13.4403 5.54437 13.5462 4.8603C13.5991 4.52016 13.6482 4.21781 13.788 3.88522C13.8773 3.63297 14.0404 3.41339 14.2561 3.25501C14.4717 3.09663 14.73 3.00675 14.9974 2.99707C16.4827 2.99707 17.6997 3.57909 18.4745 4.47103C19.253 5.35918 19.6158 6.4741 19.8124 7.57768C20.1298 9.38422 20.0089 10.9149 19.9484 12.0071H25.9954C27.6432 12.0071 29.0038 13.3601 29.0038 15.0042C29.0038 15.5862 28.8375 16.0246 28.6259 16.7049C28.4142 17.3889 28.1308 18.2128 27.8133 19.0934C27.1859 20.8546 26.4376 22.8501 25.9463 24.3203C25.7615 24.9528 25.4532 25.5424 25.0393 26.0551C24.7862 26.3484 24.4738 26.5846 24.1226 26.7481C23.7714 26.9117 23.3895 26.9988 23.0022 27.0037H10.9989C10.658 27.0006 10.3204 26.9379 10.0011 26.8185V27.0075C10.0011 28.0959 9.09406 29.0068 8.00182 29.0068L4.99721 29.003ZM4.99721 26.9999H8.00182V13.0011H4.99721V26.9999ZM10.9989 25.0006H23.0022C23.2667 25.0006 23.3499 24.9477 23.5237 24.7436C23.7605 24.4217 23.9395 24.0611 24.0528 23.6778C24.5631 22.1472 25.3114 20.1554 25.9312 18.4169C26.2411 17.5477 26.5208 16.7427 26.7135 16.1115C26.91 15.4841 27.0045 14.9172 27.0045 15.0004C27.0071 14.868 26.9829 14.7365 26.9332 14.6137C26.8835 14.491 26.8094 14.3796 26.7154 14.2864C26.6214 14.1931 26.5095 14.1198 26.3864 14.0711C26.2633 14.0223 26.1316 13.999 25.9992 14.0026H18.9129C18.7807 14.0031 18.6498 13.9775 18.5276 13.9271C18.4054 13.8768 18.2944 13.8027 18.2009 13.7093C18.1075 13.6158 18.0334 13.5048 17.9831 13.3826C17.9327 13.2604 17.9071 13.1295 17.9076 12.9973C17.9076 11.8181 18.1646 9.70925 17.8509 7.91782C17.6921 7.02589 17.3974 6.27379 16.9703 5.78625C16.6009 5.37073 16.0933 5.10347 15.5417 5.03416C15.4396 5.60484 15.3716 6.57992 15.2431 7.49075C14.9823 9.35399 14.491 11.7123 12.4993 12.865C11.7547 13.2921 11.0367 13.5453 10.6096 13.8401C10.1787 14.1349 10.0049 14.2936 10.0049 15.0004V23.9953C10.0049 24.5698 10.4282 25.0006 10.9989 25.0006Z" fill="black"/>
</svg>
