<svg width="25" height="25" viewBox="0 0 25 25" fill="none" xmlns="http://www.w3.org/2000/svg">
<path d="M12.5 2.34375C10.4529 2.34375 8.48957 3.15697 7.04202 4.60452C5.59447 6.05207 4.78125 8.01536 4.78125 10.0625V10.625C5.09375 14.8542 8.60417 18.2552 12.5 22.6562C16.5677 18.0625 20.2188 14.5833 20.2188 10.0625C20.2188 8.01536 19.4055 6.05207 17.958 4.60452C16.5104 3.15697 14.5471 2.34375 12.5 2.34375ZM12.5 6.35417C13.2347 6.35417 13.9529 6.57209 14.5637 6.98037C15.1745 7.38865 15.6504 7.96894 15.9314 8.6478C16.2123 9.32667 16.2855 10.0736 16.1418 10.7941C15.9981 11.5146 15.6439 12.1763 15.124 12.6954C14.6042 13.2146 13.942 13.5678 13.2213 13.7105C12.5006 13.8532 11.7537 13.7789 11.0753 13.4971C10.3968 13.2152 9.81719 12.7384 9.40977 12.1271C9.00235 11.5157 8.78543 10.7972 8.78646 10.0625C8.78784 9.07851 9.17969 8.13529 9.87597 7.44C10.5722 6.7447 11.516 6.35417 12.5 6.35417Z" stroke="black" stroke-linecap="round" stroke-linejoin="round"/>
</svg>
