<svg width="25" height="25" viewBox="0 0 25 25" fill="none" xmlns="http://www.w3.org/2000/svg">
<path d="M2.77778 25C2.01389 25 1.35972 24.7282 0.815278 24.1847C0.271759 23.6403 0 22.9861 0 22.2222V2.77778C0 2.01389 0.271759 1.35972 0.815278 0.815278C1.35972 0.271759 2.01389 0 2.77778 0H18.0556L25 6.94444V22.2222C25 22.9861 24.7282 23.6403 24.1847 24.1847C23.6403 24.7282 22.9861 25 22.2222 25H2.77778ZM6.94444 19.4444H18.0556C18.4491 19.4444 18.7787 19.3111 19.0444 19.0444C19.3111 18.7787 19.4444 18.4491 19.4444 18.0556C19.4444 17.662 19.3111 17.3319 19.0444 17.0653C18.7787 16.7995 18.4491 16.6667 18.0556 16.6667H6.94444C6.55093 16.6667 6.22083 16.7995 5.95417 17.0653C5.68843 17.3319 5.55556 17.662 5.55556 18.0556C5.55556 18.4491 5.68843 18.7787 5.95417 19.0444C6.22083 19.3111 6.55093 19.4444 6.94444 19.4444ZM6.94444 8.33333H11.1111C11.5046 8.33333 11.8347 8.2 12.1014 7.93333C12.3671 7.66759 12.5 7.33796 12.5 6.94444C12.5 6.55093 12.3671 6.22083 12.1014 5.95417C11.8347 5.68843 11.5046 5.55556 11.1111 5.55556H6.94444C6.55093 5.55556 6.22083 5.68843 5.95417 5.95417C5.68843 6.22083 5.55556 6.55093 5.55556 6.94444C5.55556 7.33796 5.68843 7.66759 5.95417 7.93333C6.22083 8.2 6.55093 8.33333 6.94444 8.33333ZM6.94444 13.8889H18.0556C18.4491 13.8889 18.7787 13.7556 19.0444 13.4889C19.3111 13.2231 19.4444 12.8935 19.4444 12.5C19.4444 12.1065 19.3111 11.7764 19.0444 11.5097C18.7787 11.244 18.4491 11.1111 18.0556 11.1111H6.94444C6.55093 11.1111 6.22083 11.244 5.95417 11.5097C5.68843 11.7764 5.55556 12.1065 5.55556 12.5C5.55556 12.8935 5.68843 13.2231 5.95417 13.4889C6.22083 13.7556 6.55093 13.8889 6.94444 13.8889ZM18.0556 8.33333H22.2222L16.6667 2.77778V6.94444C16.6667 7.33796 16.8 7.66759 17.0667 7.93333C17.3324 8.2 17.662 8.33333 18.0556 8.33333Z" fill="#E93C00"/>
</svg>
