<svg width="27" height="26" viewBox="0 0 27 26" fill="none" xmlns="http://www.w3.org/2000/svg">
<path d="M1 9L13.5 1L26 9.08823" stroke="#E93C00" stroke-linecap="round" stroke-linejoin="round"/>
<path d="M3.73682 8C3.73682 7.72386 3.51296 7.5 3.23682 7.5C2.96067 7.5 2.73682 7.72386 2.73682 8H3.73682ZM2.73682 8L2.73682 26H3.73682L3.73682 8H2.73682Z" fill="#E93C00"/>
<path d="M24.7632 8C24.7632 7.72386 24.5393 7.5 24.2632 7.5C23.987 7.5 23.7632 7.72386 23.7632 8H24.7632ZM23.7632 8V26H24.7632V8H23.7632Z" fill="#E93C00"/>
<line x1="3.68408" y1="25.5" x2="24.263" y2="25.5" stroke="#E93C00"/>
<rect x="10.4473" y="12.5" width="7.05263" height="13" stroke="#E93C00"/>
</svg>
