<svg width="27" height="27" viewBox="0 0 27 27" fill="none" xmlns="http://www.w3.org/2000/svg">
<path d="M13.5 1C6.59644 1 1 6.59644 1 13.5C1 20.4035 6.59644 26 13.5 26C20.4035 26 26 20.4035 26 13.5C26 6.59644 20.4035 1 13.5 1Z" stroke="black" stroke-linecap="round" stroke-linejoin="round"/>
<path d="M3.83838 21.4321C3.83838 21.4321 6.62465 17.875 13.4996 17.875C20.3746 17.875 23.161 21.4321 23.161 21.4321" stroke="black" stroke-linecap="round" stroke-linejoin="round"/>
<path d="M13.5 13.5C15.5711 13.5 17.25 11.8211 17.25 9.75C17.25 7.67894 15.5711 6 13.5 6C11.4289 6 9.75 7.67894 9.75 9.75C9.75 11.8211 11.4289 13.5 13.5 13.5Z" stroke="black" stroke-linecap="round" stroke-linejoin="round"/>
</svg>
