<svg width="22" height="22" viewBox="0 0 22 22" fill="none" xmlns="http://www.w3.org/2000/svg">
<path d="M16.5556 10.5556V14.3334C16.5556 18.0152 13.5708 21 9.88889 21H7.66667C3.98477 21 1 18.0152 1 14.3334V10.5556C1 10.1874 1.29848 9.88892 1.66667 9.88892H15.8889C16.2571 9.88892 16.5556 10.1874 16.5556 10.5556Z" stroke="#E93C00" stroke-linecap="round" stroke-linejoin="round"/>
<path d="M11 7.66653C11 6.55542 11.7937 5.44431 13.381 5.44431C15.1342 5.44431 16.5556 4.02299 16.5556 2.26971V1.55542" stroke="#E93C00" stroke-linecap="round" stroke-linejoin="round"/>
<path d="M6.55469 7.66667V7.11111C6.55469 5.27017 8.04708 3.77778 9.88802 3.77778C11.1154 3.77778 12.1102 2.78286 12.1102 1.55556V1" stroke="#E93C00" stroke-linecap="round" stroke-linejoin="round"/>
<path d="M15.4438 9.88892H18.2216C19.7557 9.88892 20.9994 11.1326 20.9994 12.6667C20.9994 14.2008 19.7557 15.4445 18.2216 15.4445H16.555" stroke="#E93C00" stroke-linecap="round" stroke-linejoin="round"/>
</svg>
