<svg width="27" height="22" viewBox="0 0 27 22" fill="none" xmlns="http://www.w3.org/2000/svg">
<path d="M18.5 3.84969C18.5 4.60147 18.2031 5.32353 17.6729 5.85763C16.4524 7.08758 15.2687 8.37006 14.0026 9.55537C13.7125 9.82312 13.2521 9.81337 12.9744 9.5335L9.32687 5.85763C8.22438 4.74656 8.22438 2.95281 9.32687 1.84174C10.4402 0.719738 12.254 0.719738 13.3672 1.84174L13.4999 1.97534L13.6324 1.84181C14.1662 1.30357 14.8932 1 15.6526 1C16.4121 1 17.1391 1.30355 17.6729 1.84174C18.2031 2.37591 18.5 3.09794 18.5 3.84969Z" stroke="black" stroke-linejoin="round"/>
<path d="M21 21L25.7804 16.2196C25.921 16.079 26 15.8882 26 15.6894V9.125C26 8.08946 25.1605 7.25 24.125 7.25C23.0895 7.25 22.25 8.08946 22.25 9.125V14.75" stroke="black" stroke-linecap="round" stroke-linejoin="round"/>
<path d="M21 15.9999L22.0726 14.9273C22.1862 14.8136 22.25 14.6596 22.25 14.4991C22.25 14.2698 22.1204 14.0601 21.9152 13.9575L21.3616 13.6808C20.3992 13.1995 19.2367 13.3881 18.4759 14.149L17.3572 15.2676C16.8884 15.7365 16.625 16.3724 16.625 17.0354V20.9999" stroke="black" stroke-linecap="round" stroke-linejoin="round"/>
<path d="M6 21L1.21967 16.2196C1.07901 16.079 1 15.8882 1 15.6894V9.125C1 8.08946 1.83946 7.25 2.875 7.25C3.91054 7.25 4.75 8.08946 4.75 9.125V14.75" stroke="black" stroke-linecap="round" stroke-linejoin="round"/>
<path d="M6 15.9999L4.92734 14.9273C4.81379 14.8136 4.75 14.6596 4.75 14.4991C4.75 14.2698 4.87957 14.0601 5.0847 13.9575L5.63834 13.6808C6.6008 13.1995 7.76324 13.3881 8.52413 14.149L9.64276 15.2676C10.1116 15.7365 10.375 16.3724 10.375 17.0354V20.9999" stroke="black" stroke-linecap="round" stroke-linejoin="round"/>
</svg>
