<svg width="22" height="22" viewBox="0 0 22 22" fill="none" xmlns="http://www.w3.org/2000/svg">
<path d="M1 11C1 16.5228 5.47715 21 11 21C16.5228 21 21 16.5228 21 11C21 5.47715 16.5228 1 11 1C5.47715 1 1 5.47715 1 11Z" stroke="black" stroke-linecap="round" stroke-linejoin="round"/>
<path d="M12 1.04932C12 1.04932 15 4.99994 15 10.9999C15 16.9999 12 20.9506 12 20.9506" stroke="black" stroke-linecap="round" stroke-linejoin="round"/>
<path d="M10 20.9506C10 20.9506 7 16.9999 7 10.9999C7 4.99994 10 1.04932 10 1.04932" stroke="black" stroke-linecap="round" stroke-linejoin="round"/>
<path d="M1.62988 14.5H20.3706" stroke="black" stroke-linecap="round" stroke-linejoin="round"/>
<path d="M1.62988 7.5H20.3706" stroke="black" stroke-linecap="round" stroke-linejoin="round"/>
</svg>
