<svg width="30" height="34" viewBox="0 0 30 34" fill="none" xmlns="http://www.w3.org/2000/svg">
<path d="M8.9201 30.7367C9.64535 31.6538 10.5695 32.3941 11.6228 32.9017C12.6761 33.4092 13.8309 33.6708 15.0001 33.6667C16.1693 33.6708 17.3241 33.4092 18.3774 32.9017C19.4307 32.3941 20.3549 31.6538 21.0801 30.7367C17.0452 31.2828 12.955 31.2828 8.9201 30.7367ZM26.2501 12V13.1734C26.2501 14.5817 26.6501 15.9584 27.4034 17.13L29.2501 20.0017C30.9351 22.625 29.6484 26.19 26.7168 27.0184C19.0563 29.1878 10.9439 29.1878 3.28344 27.0184C0.35177 26.19 -0.934896 22.625 0.750104 20.0017L2.59677 17.13C3.35212 15.9487 3.75296 14.5756 3.75177 13.1734V12C3.75177 5.55671 8.78844 0.333374 15.0001 0.333374C21.2118 0.333374 26.2501 5.55671 26.2501 12Z" fill="#E93C00"/>
</svg>
