<svg width="24" height="22" viewBox="0 0 24 22" fill="none" xmlns="http://www.w3.org/2000/svg">
<path d="M16.8238 13.0949L22.9002 8.87728C23.03 8.78704 23.0016 8.66071 22.9862 8.62297C22.975 8.58523 22.92 8.46546 22.7593 8.46546L15.247 8.46628C14.9299 8.46628 14.6489 8.26856 14.5475 7.98142L12.2263 1.15915C12.1756 1.01066 12.0372 1 11.9994 1C11.9599 1 11.8233 1.01067 11.7726 1.15998L9.45232 7.98078C9.35521 8.26873 9.07162 8.46563 8.75281 8.46563L1.23959 8.46645C1.07889 8.46645 1.0239 8.58622 1.01271 8.62396C0.999824 8.6617 0.968887 8.78722 1.09865 8.87746L7.17509 13.0942C7.4329 13.2731 7.54289 13.5881 7.44579 13.8777L5.12046 20.7C5.07405 20.8452 5.17546 20.9313 5.20639 20.9543C5.24163 20.9773 5.3585 21.0445 5.48825 20.9543L11.5691 16.7375C11.8269 16.5587 12.1715 16.5587 12.4336 16.7375L18.5092 20.9534C18.6389 21.0437 18.7558 20.9764 18.791 20.9534C18.8219 20.9305 18.9276 20.8443 18.8769 20.6991L16.5534 13.8783C16.4545 13.5863 16.5645 13.2729 16.8241 13.0949L16.8238 13.0949Z" fill="#E93C00"/>
<path d="M11.9991 1L15.1031 7.728L22.4611 8.601L17.0211 13.631L18.4651 20.899L11.9991 17.28L5.53311 20.9L6.97711 13.632L1.53711 8.6L8.89611 7.727L11.9991 1Z" stroke="#E93C00" stroke-width="2" stroke-linejoin="round"/>
</svg>
