<svg width="14" height="14" viewBox="0 0 14 14" fill="none" xmlns="http://www.w3.org/2000/svg">
<path d="M7.00077 2.27332C4.92156 2.27332 3.23047 3.9644 3.23047 6.04361C3.23047 6.29312 3.25819 6.54262 3.29978 6.79213C3.29978 6.80599 3.29978 6.83371 3.31364 6.84757C3.72948 8.705 6.65423 11.505 6.77898 11.6298C6.84829 11.6852 6.93146 11.7268 7.01463 11.7268C7.0978 11.7268 7.18096 11.6991 7.25027 11.6298C7.37502 11.505 10.2721 8.71886 10.6879 6.88916C10.6879 6.8753 10.6879 6.86143 10.7018 6.83371C10.7572 6.57034 10.7849 6.30698 10.7849 6.02975C10.7711 3.9644 9.07997 2.27332 7.00077 2.27332ZM10.0364 6.72282V6.75054C9.73146 8.10896 7.7077 10.2298 7.01463 10.9228C6.32156 10.2298 4.2978 8.10896 3.97898 6.72282V6.68124C3.9374 6.47332 3.90968 6.26539 3.90968 6.04361C3.90968 4.33866 5.29582 2.93866 7.01463 2.93866C8.73344 2.93866 10.1196 4.3248 10.1196 6.04361C10.1057 6.27926 10.078 6.50104 10.0364 6.72282Z" fill="black"/>
<path d="M6.99967 4.39404C6.3066 4.39404 5.73828 4.96236 5.73828 5.65543C5.73828 6.3485 6.3066 6.91682 6.99967 6.91682C7.69274 6.91682 8.26105 6.3485 8.26105 5.65543C8.26105 4.96236 7.69274 4.39404 6.99967 4.39404ZM6.99967 6.25147C6.66699 6.25147 6.40363 5.9881 6.40363 5.65543C6.40363 5.32276 6.66699 5.05939 6.99967 5.05939C7.33234 5.05939 7.59571 5.32276 7.59571 5.65543C7.59571 5.9881 7.33234 6.25147 6.99967 6.25147Z" fill="black"/>
</svg>
