<svg width="63" height="77" viewBox="0 0 63 77" fill="none" xmlns="http://www.w3.org/2000/svg">
<path fill-rule="evenodd" clip-rule="evenodd" d="M9.19989 9.24472C21.4664 -3.08034 41.5295 -3.08034 53.796 9.23731L41.9426 17.249C39.0069 15.0997 35.3999 13.8323 31.4979 13.8323C21.7024 13.8323 13.7657 21.8144 13.7657 31.6492C13.7657 41.4915 21.7024 49.4735 31.4979 49.4735C40.5042 49.4735 47.932 42.7366 49.0827 34.006L51.8266 31.2194L51.7676 31.1675L61.2607 21.2289C65.0815 32.3459 62.5957 45.2194 53.796 54.0537L31.4979 76.4656L9.19989 54.0537C-3.06663 41.736 -3.06663 21.5698 9.19989 9.24472Z" fill="url(#paint0_linear_2380_1206)"/>
<path fill-rule="evenodd" clip-rule="evenodd" d="M58.3318 11.0382L31.5195 29.1515L35.0748 35.9255L42.2961 35.2511L62.1748 14.44C62.1748 14.44 64.0114 13.0615 62.2043 11.0012C60.4045 8.93341 58.3318 11.0382 58.3318 11.0382Z" fill="url(#paint1_linear_2380_1206)"/>
<path fill-rule="evenodd" clip-rule="evenodd" d="M18.2648 29.9075L30.2437 43.6704C30.2437 43.6704 31.6304 46.0568 33.7031 44.0335C35.7758 42.0102 46.154 31.2638 46.154 31.2638C46.154 31.2638 41.3005 36.1923 36.9412 31.286C32.5819 26.3797 30.7969 24.4083 30.7969 24.4083C30.7969 24.4083 29.4028 22.2294 26.6515 23.1113C23.9002 24.0007 18.4124 25.5274 18.4124 25.5274C18.4124 25.5274 15.0267 26.2092 18.2722 29.9075H18.2648Z" fill="url(#paint2_linear_2380_1206)"/>
<defs>
<linearGradient id="paint0_linear_2380_1206" x1="69.4452" y1="14.9188" x2="24.7503" y2="42.1964" gradientUnits="userSpaceOnUse">
<stop stop-color="#E93C00"/>
<stop offset="1" stop-color="#E86900"/>
</linearGradient>
<linearGradient id="paint1_linear_2380_1206" x1="62.7641" y1="11.8305" x2="39.9239" y2="34.2908" gradientUnits="userSpaceOnUse">
<stop stop-color="#E93C00"/>
<stop offset="1" stop-color="#E86900"/>
</linearGradient>
<linearGradient id="paint2_linear_2380_1206" x1="39.8423" y1="38.16" x2="23.2648" y2="17.6262" gradientUnits="userSpaceOnUse">
<stop stop-color="#E93C00"/>
<stop offset="1" stop-color="#E86900"/>
</linearGradient>
</defs>
</svg>
