<svg width="63" height="81" viewBox="0 0 63 81" fill="none" xmlns="http://www.w3.org/2000/svg">
<path d="M31.498 79.8046L9.38124 56.4987L9.38116 56.4986C-2.79369 43.6811 -2.79377 22.6898 9.38121 9.86444C21.2846 -2.67479 40.5848 -2.94723 52.8095 9.03851C53.1293 9.35203 53.0837 9.88291 52.7095 10.1481L41.9477 17.7741C38.9978 15.557 35.3931 14.2521 31.498 14.2521C21.5522 14.2521 13.5157 22.7449 13.5157 33.1816C13.5157 43.6259 21.5522 52.1188 31.498 52.1188C40.6162 52.1188 48.1235 44.9903 49.3208 35.7618L51.9524 32.8449L51.9533 32.844L60.868 23.059C60.9986 22.9156 61.2255 22.9712 61.2783 23.1469C64.6989 34.5315 62.1431 47.5222 53.6148 56.4986L53.6147 56.4987L31.498 79.8046Z" fill="url(#paint0_linear_1748_1020)" stroke="white" stroke-width="0.5"/>
<path fill-rule="evenodd" clip-rule="evenodd" d="M58.3318 11.5739L31.5195 30.5642L35.0748 37.6662L42.2961 36.9591L62.1748 15.1404C62.1748 15.1404 64.0115 13.6952 62.2043 11.5351C60.4045 9.3672 58.3318 11.5739 58.3318 11.5739Z" fill="url(#paint1_linear_1748_1020)"/>
<path fill-rule="evenodd" clip-rule="evenodd" d="M18.2629 31.3568L30.2418 45.786C30.2418 45.786 31.6285 48.288 33.7012 46.1668C35.7739 44.0455 46.1521 32.7788 46.1521 32.7788C46.1521 32.7788 41.2986 37.9459 36.9393 32.8021C32.58 27.6582 30.795 25.5914 30.795 25.5914C30.795 25.5914 29.4009 23.3069 26.6496 24.2316C23.8983 25.164 18.4104 26.7647 18.4104 26.7647C18.4104 26.7647 15.0248 27.4795 18.2703 31.3568H18.2629Z" fill="url(#paint2_linear_1748_1020)"/>
<defs>
<linearGradient id="paint0_linear_1748_1020" x1="69.4453" y1="15.6412" x2="23.6285" y2="42.3121" gradientUnits="userSpaceOnUse">
<stop stop-color="#E93C00"/>
<stop offset="1" stop-color="#E86900"/>
</linearGradient>
<linearGradient id="paint1_linear_1748_1020" x1="62.7642" y1="12.4046" x2="38.8638" y2="34.822" gradientUnits="userSpaceOnUse">
<stop stop-color="#E93C00"/>
<stop offset="1" stop-color="#E86900"/>
</linearGradient>
<linearGradient id="paint2_linear_1748_1020" x1="39.8403" y1="40.0089" x2="22.305" y2="19.2916" gradientUnits="userSpaceOnUse">
<stop stop-color="#E93C00"/>
<stop offset="1" stop-color="#E86900"/>
</linearGradient>
</defs>
</svg>
