<svg width="17" height="15" viewBox="0 0 17 15" fill="none" xmlns="http://www.w3.org/2000/svg">
<path d="M15.9568 12.3043L13.2137 7.2315C13.4936 6.59635 13.6502 5.89439 13.6502 5.15588C13.6502 2.30963 11.3427 0.00244141 8.49672 0.00244141C5.65 0.00244141 3.34281 2.30986 3.34281 5.15588C3.34281 5.91221 3.50711 6.62986 3.79961 7.27674L1.0443 12.302C0.955453 12.4635 0.970218 12.6627 1.08131 12.8101C1.19264 12.9571 1.38061 13.0262 1.56013 12.984L3.91302 12.4443L4.71833 14.6872C4.78114 14.8616 4.94028 14.9825 5.12474 14.9961C5.1367 14.9971 5.14817 14.9975 5.15942 14.9975C5.24418 14.9975 5.32735 14.9745 5.40007 14.931C5.47279 14.8874 5.53234 14.825 5.57239 14.7503L7.97028 10.2829C8.14511 10.3006 8.32073 10.3094 8.49645 10.3093C8.65934 10.3093 8.82011 10.3009 8.97902 10.2859L11.4289 14.7538C11.4723 14.833 11.5376 14.898 11.617 14.9409C11.6964 14.9839 11.7866 15.003 11.8766 14.9959C12.0606 14.9811 12.219 14.8604 12.2813 14.687L13.0867 12.444L15.4395 12.9838C15.62 13.0274 15.8061 12.9573 15.9174 12.8108C16.0292 12.6646 16.0442 12.4663 15.9568 12.3043H15.9568ZM5.24471 13.3792L4.65499 11.7362C4.57436 11.5128 4.34047 11.3827 4.1089 11.4378L2.36866 11.837L4.35221 8.21915C5.00541 9.10157 5.93353 9.76719 7.01002 10.0911L5.24471 13.3792ZM4.28446 5.15586C4.28446 2.83344 6.17424 0.943911 8.49688 0.943911C10.8193 0.943911 12.7088 2.83344 12.7088 5.15586C12.7088 7.47829 10.8193 9.36829 8.49688 9.36829C6.17399 9.36829 4.28446 7.47829 4.28446 5.15586ZM12.8907 11.4378C12.6582 11.383 12.4252 11.5128 12.3446 11.7361L11.7509 13.3911L9.94694 10.1016C11.052 9.77794 12.0027 9.09476 12.6643 8.18655L14.6396 11.8388L12.8907 11.4378Z" fill="black"/>
</svg>
