<svg width="55" height="55" viewBox="0 0 55 55" fill="none" xmlns="http://www.w3.org/2000/svg">
<mask id="mask0_1088_1278" style="mask-type:alpha" maskUnits="userSpaceOnUse" x="0" y="0" width="55" height="55">
<rect width="55" height="55" fill="#D9D9D9"/>
</mask>
<g mask="url(#mask0_1088_1278)">
<path d="M35.5215 22.2083C36.4763 22.2083 37.288 21.874 37.9564 21.2056C38.6248 20.5372 38.959 19.7256 38.959 18.7708C38.959 17.8159 38.6248 17.0043 37.9564 16.3359C37.288 15.6675 36.4763 15.3333 35.5215 15.3333C34.5666 15.3333 33.755 15.6675 33.0866 16.3359C32.4182 17.0043 32.084 17.8159 32.084 18.7708C32.084 19.7256 32.4182 20.5372 33.0866 21.2056C33.755 21.874 34.5666 22.2083 35.5215 22.2083ZM19.4798 22.2083C20.4347 22.2083 21.2463 21.874 21.9147 21.2056C22.5831 20.5372 22.9173 19.7256 22.9173 18.7708C22.9173 17.8159 22.5831 17.0043 21.9147 16.3359C21.2463 15.6675 20.4347 15.3333 19.4798 15.3333C18.525 15.3333 17.7133 15.6675 17.0449 16.3359C16.3765 17.0043 16.0423 17.8159 16.0423 18.7708C16.0423 19.7256 16.3765 20.5372 17.0449 21.2056C17.7133 21.874 18.525 22.2083 19.4798 22.2083ZM27.5006 27.9374C24.9034 27.9374 22.5449 28.6727 20.4251 30.1431C18.3053 31.6136 16.768 33.552 15.8132 35.9582H19.5944C20.4347 34.5451 21.5519 33.4279 22.946 32.6067C24.3401 31.7855 25.8583 31.3749 27.5006 31.3749C29.143 31.3749 30.6612 31.7855 32.0553 32.6067C33.4494 33.4279 34.5666 34.5451 35.4069 35.9582H39.1881C38.2333 33.552 36.696 31.6136 34.5762 30.1431C32.4564 28.6727 30.0979 27.9374 27.5006 27.9374ZM27.5006 47.4166C24.3305 47.4166 21.3513 46.815 18.5631 45.6119C15.775 44.4088 13.3496 42.776 11.2871 40.7135C9.22461 38.651 7.5918 36.2256 6.38867 33.4374C5.18555 30.6492 4.58398 27.6701 4.58398 24.4999C4.58398 21.3298 5.18555 18.3506 6.38867 15.5624C7.5918 12.7742 9.22461 10.3489 11.2871 8.28638C13.3496 6.22388 15.775 4.59106 18.5631 3.38794C21.3513 2.18481 24.3305 1.58325 27.5006 1.58325C30.6708 1.58325 33.65 2.18481 36.4382 3.38794C39.2263 4.59106 41.6517 6.22388 43.7142 8.28638C45.7767 10.3489 47.4095 12.7742 48.6126 15.5624C49.8158 18.3506 50.4173 21.3298 50.4173 24.4999C50.4173 27.6701 49.8158 30.6492 48.6126 33.4374C47.4095 36.2256 45.7767 38.651 43.7142 40.7135C41.6517 42.776 39.2263 44.4088 36.4382 45.6119C33.65 46.815 30.6708 47.4166 27.5006 47.4166ZM27.5006 42.8332C32.6187 42.8332 36.9538 41.0572 40.5059 37.5051C44.0579 33.953 45.834 29.618 45.834 24.4999C45.834 19.3819 44.0579 15.0468 40.5059 11.4947C36.9538 7.94263 32.6187 6.16658 27.5006 6.16658C22.3826 6.16658 18.0475 7.94263 14.4954 11.4947C10.9434 15.0468 9.16732 19.3819 9.16732 24.4999C9.16732 29.618 10.9434 33.953 14.4954 37.5051C18.0475 41.0572 22.3826 42.8332 27.5006 42.8332Z" fill="#E53B00"/>
</g>
</svg>
