<svg width="12" height="12" viewBox="0 0 12 12" fill="none" xmlns="http://www.w3.org/2000/svg">
<path d="M8.04102 5.41675C8.28407 5.41675 8.49067 5.33168 8.66081 5.16154C8.83095 4.9914 8.91602 4.7848 8.91602 4.54175C8.91602 4.29869 8.83095 4.0921 8.66081 3.92196C8.49067 3.75182 8.28407 3.66675 8.04102 3.66675C7.79796 3.66675 7.59136 3.75182 7.42122 3.92196C7.25109 4.0921 7.16602 4.29869 7.16602 4.54175C7.16602 4.7848 7.25109 4.9914 7.42122 5.16154C7.59136 5.33168 7.79796 5.41675 8.04102 5.41675ZM3.95768 5.41675C4.20074 5.41675 4.40734 5.33168 4.57747 5.16154C4.74761 4.9914 4.83268 4.7848 4.83268 4.54175C4.83268 4.29869 4.74761 4.0921 4.57747 3.92196C4.40734 3.75182 4.20074 3.66675 3.95768 3.66675C3.71463 3.66675 3.50803 3.75182 3.33789 3.92196C3.16775 4.0921 3.08268 4.29869 3.08268 4.54175C3.08268 4.7848 3.16775 4.9914 3.33789 5.16154C3.50803 5.33168 3.71463 5.41675 3.95768 5.41675ZM5.99935 9.20842C6.66046 9.20842 7.26081 9.02126 7.80039 8.64696C8.33997 8.27265 8.73129 7.77925 8.97435 7.16675H8.01185C7.79796 7.52647 7.51359 7.81085 7.15872 8.01987C6.80386 8.2289 6.41741 8.33342 5.99935 8.33342C5.58129 8.33342 5.19484 8.2289 4.83997 8.01987C4.48511 7.81085 4.20074 7.52647 3.98685 7.16675H3.02435C3.2674 7.77925 3.65872 8.27265 4.19831 8.64696C4.73789 9.02126 5.33824 9.20842 5.99935 9.20842ZM5.99935 11.8334C5.1924 11.8334 4.43407 11.6803 3.72435 11.374C3.01463 11.0678 2.39727 10.6522 1.87227 10.1272C1.34727 9.60217 0.931641 8.9848 0.625391 8.27508C0.319141 7.56536 0.166016 6.80703 0.166016 6.00008C0.166016 5.19314 0.319141 4.4348 0.625391 3.72508C0.931641 3.01536 1.34727 2.398 1.87227 1.873C2.39727 1.348 3.01463 0.932373 3.72435 0.626123C4.43407 0.319873 5.1924 0.166748 5.99935 0.166748C6.80629 0.166748 7.56463 0.319873 8.27435 0.626123C8.98407 0.932373 9.60143 1.348 10.1264 1.873C10.6514 2.398 11.0671 3.01536 11.3733 3.72508C11.6796 4.4348 11.8327 5.19314 11.8327 6.00008C11.8327 6.80703 11.6796 7.56536 11.3733 8.27508C11.0671 8.9848 10.6514 9.60217 10.1264 10.1272C9.60143 10.6522 8.98407 11.0678 8.27435 11.374C7.56463 11.6803 6.80629 11.8334 5.99935 11.8334ZM5.99935 10.6667C7.30213 10.6667 8.4056 10.2147 9.30977 9.3105C10.2139 8.40633 10.666 7.30286 10.666 6.00008C10.666 4.6973 10.2139 3.59383 9.30977 2.68967C8.4056 1.7855 7.30213 1.33341 5.99935 1.33341C4.69657 1.33341 3.5931 1.7855 2.68893 2.68967C1.78477 3.59383 1.33268 4.6973 1.33268 6.00008C1.33268 7.30286 1.78477 8.40633 2.68893 9.3105C3.5931 10.2147 4.69657 10.6667 5.99935 10.6667Z" fill="#9E7164"/>
</svg>
