<svg width="15" height="15" viewBox="0 0 15 15" fill="none" xmlns="http://www.w3.org/2000/svg">
<g clip-path="url(#clip0_891_2040)">
<path d="M15 6.07735V11.8749C14.999 12.7034 14.6695 13.4976 14.0836 14.0835C13.4978 14.6693 12.7035 14.9989 11.875 14.9999H11.25C11.0842 14.9999 10.9253 14.934 10.8081 14.8168C10.6909 14.6996 10.625 14.5406 10.625 14.3749C10.625 14.2091 10.6909 14.0501 10.8081 13.9329C10.9253 13.8157 11.0842 13.7499 11.25 13.7499H11.875C12.3723 13.7499 12.8492 13.5523 13.2008 13.2007C13.5525 12.849 13.75 12.3721 13.75 11.8749V6.07735C13.75 5.77043 13.6747 5.46819 13.5306 5.19718C13.3866 4.92616 13.1782 4.69465 12.9238 4.52298L8.54875 1.5711C8.23961 1.36036 7.87415 1.24764 7.5 1.24764C7.12586 1.24764 6.7604 1.36036 6.45125 1.5711L2.07625 4.52298C1.82183 4.69465 1.61344 4.92616 1.46938 5.19718C1.32531 5.46819 1.24998 5.77043 1.25 6.07735V11.8749C1.25 12.3721 1.44755 12.849 1.79918 13.2007C2.15081 13.5523 2.62772 13.7499 3.125 13.7499H3.75C3.91576 13.7499 4.07473 13.8157 4.19194 13.9329C4.30915 14.0501 4.375 14.2091 4.375 14.3749C4.375 14.5406 4.30915 14.6996 4.19194 14.8168C4.07473 14.934 3.91576 14.9999 3.75 14.9999H3.125C2.29651 14.9989 1.50223 14.6693 0.91639 14.0835C0.330554 13.4976 0.000994859 12.7034 2.44817e-06 11.8749V6.07735C-0.000638099 5.56593 0.124427 5.06218 0.364193 4.61044C0.603958 4.1587 0.951076 3.77281 1.375 3.48673L5.75 0.534228C6.26579 0.184199 6.87478 -0.00292969 7.49813 -0.00292969C8.12147 -0.00292969 8.73046 0.184199 9.24625 0.534228L13.6213 3.48673C14.0456 3.77266 14.3932 4.15842 14.6336 4.61013C14.874 5.06183 14.9998 5.56566 15 6.07735ZM11.875 9.37923C11.8766 9.95392 11.7642 10.5232 11.5443 11.0542C11.3243 11.5851 11.0013 12.0671 10.5938 12.4724L8.39688 14.6211C8.15638 14.854 7.83475 14.9841 7.5 14.9841C7.16525 14.9841 6.84363 14.854 6.60313 14.6211L4.41125 12.4774C3.9015 11.9692 3.525 11.3431 3.31512 10.6546C3.10524 9.96612 3.06848 9.23647 3.20808 8.53037C3.34769 7.82426 3.65935 7.1635 4.11544 6.60668C4.57153 6.04985 5.15796 5.61415 5.82274 5.33821C6.48752 5.06226 7.21011 4.9546 7.92646 5.02476C8.64281 5.09492 9.33078 5.34074 9.92939 5.74042C10.528 6.14011 11.0187 6.68131 11.3581 7.31605C11.6975 7.95078 11.8751 8.65945 11.875 9.37923ZM10.625 9.37923C10.625 8.86534 10.4983 8.35937 10.256 7.90615C10.0138 7.45293 9.66355 7.06644 9.23627 6.78092C8.809 6.4954 8.3179 6.31965 7.80649 6.26925C7.29507 6.21885 6.77912 6.29535 6.30433 6.49198C5.82954 6.6886 5.41056 6.99928 5.08452 7.3965C4.75847 7.79371 4.53542 8.26521 4.43511 8.76922C4.3348 9.27322 4.36034 9.79419 4.50946 10.286C4.65858 10.7778 4.92667 11.2252 5.29 11.5886L7.4775 13.7274L9.715 11.5836C10.0048 11.2945 10.2344 10.9508 10.3906 10.5725C10.5468 10.1941 10.6264 9.78856 10.625 9.37923ZM9.375 9.37485C9.375 9.74569 9.26504 10.1082 9.05901 10.4165C8.85298 10.7249 8.56015 10.9652 8.21754 11.1071C7.87492 11.249 7.49792 11.2862 7.13421 11.2138C6.77049 11.1415 6.4364 10.9629 6.17418 10.7007C5.91195 10.4385 5.73338 10.1044 5.66103 9.74065C5.58868 9.37693 5.62581 8.99993 5.76773 8.65732C5.90964 8.31471 6.14997 8.02188 6.45831 7.81585C6.76665 7.60982 7.12916 7.49985 7.5 7.49985C7.99728 7.49985 8.4742 7.6974 8.82583 8.04903C9.17746 8.40066 9.375 8.87757 9.375 9.37485Z" fill="black"/>
</g>
<defs>
<clipPath id="clip0_891_2040">
<rect width="15" height="15" fill="white"/>
</clipPath>
</defs>
</svg>
