<svg width="12" height="13" viewBox="0 0 12 13" fill="none" xmlns="http://www.w3.org/2000/svg">
<path d="M5.00065 12.8333C3.43537 11.5014 2.26628 10.2642 1.49336 9.12187C0.720443 7.97951 0.333984 6.92222 0.333984 5.95C0.333984 4.49167 0.803082 3.32986 1.74128 2.46458C2.67947 1.59931 3.76593 1.16667 5.00065 1.16667H5.29232C5.38954 1.16667 5.48676 1.17639 5.58398 1.19583V2.37708C5.48676 2.35764 5.39197 2.34549 5.29961 2.34063C5.20725 2.33576 5.1076 2.33333 5.00065 2.33333C4.01871 2.33333 3.18989 2.67118 2.51419 3.34687C1.8385 4.02257 1.50065 4.89028 1.50065 5.95C1.50065 6.64028 1.78746 7.43021 2.36107 8.31979C2.93468 9.20937 3.81454 10.1986 5.00065 11.2875C6.18676 10.1986 7.06662 9.20937 7.64023 8.31979C8.21385 7.43021 8.50065 6.64028 8.50065 5.95V5.83333H9.66732V5.95C9.66732 6.92222 9.28086 7.97951 8.50794 9.12187C7.73503 10.2642 6.56593 11.5014 5.00065 12.8333ZM5.00065 7C5.32148 7 5.59614 6.88576 5.82461 6.65729C6.05308 6.42882 6.16732 6.15417 6.16732 5.83333C6.16732 5.5125 6.05308 5.23785 5.82461 5.00938C5.59614 4.7809 5.32148 4.66667 5.00065 4.66667C4.67982 4.66667 4.40516 4.7809 4.17669 5.00938C3.94822 5.23785 3.83398 5.5125 3.83398 5.83333C3.83398 6.15417 3.94822 6.42882 4.17669 6.65729C4.40516 6.88576 4.67982 7 5.00065 7ZM8.50065 4.66667H9.66732V2.91667H11.4173V1.75H9.66732V0H8.50065V1.75H6.75065V2.91667H8.50065V4.66667Z" fill="#9E7164"/>
</svg>
