<svg width="15" height="15" viewBox="0 0 15 15" fill="none" xmlns="http://www.w3.org/2000/svg">
<g clip-path="url(#clip0_891_2044)">
<path d="M7.5 6.25C7.00272 6.25 6.52581 6.05246 6.17417 5.70083C5.82254 5.34919 5.625 4.87228 5.625 4.375C5.625 3.87772 5.82254 3.40081 6.17417 3.04917C6.52581 2.69754 7.00272 2.5 7.5 2.5C7.99728 2.5 8.47419 2.69754 8.82583 3.04917C9.17746 3.40081 9.375 3.87772 9.375 4.375C9.375 4.87228 9.17746 5.34919 8.82583 5.70083C8.47419 6.05246 7.99728 6.25 7.5 6.25ZM5.605 9.53062C5.73352 9.12909 5.98629 8.77876 6.32683 8.5302C6.66738 8.28164 7.07808 8.14769 7.49969 8.14769C7.92129 8.14769 8.332 8.28164 8.67254 8.5302C9.01308 8.77876 9.26585 9.12909 9.39437 9.53062C9.43581 9.69125 9.53936 9.82883 9.68224 9.9131C9.82512 9.99738 9.99563 10.0214 10.1562 9.98C10.3169 9.93856 10.4545 9.83501 10.5387 9.69213C10.623 9.54925 10.6471 9.37875 10.6056 9.21812C9.78625 6.12625 5.21187 6.1275 4.395 9.21812C4.37244 9.29823 4.3661 9.38204 4.37636 9.46463C4.38662 9.54722 4.41327 9.62692 4.45475 9.69907C4.49622 9.77123 4.5517 9.83437 4.6179 9.88479C4.68411 9.93522 4.75972 9.97191 4.8403 9.99272C4.92088 10.0135 5.00481 10.018 5.08715 10.006C5.1695 9.99392 5.24861 9.96554 5.31983 9.9225C5.39106 9.87945 5.45298 9.82262 5.50195 9.75533C5.55092 9.68803 5.58595 9.61164 5.605 9.53062ZM7.50562 14.7906C7.19728 14.7908 6.89964 14.6776 6.66937 14.4725L4.32687 12.5H2.5C1.83696 12.5 1.20107 12.2366 0.732233 11.7678C0.263392 11.2989 0 10.663 0 10V2.5C0 1.83696 0.263392 1.20107 0.732233 0.732233C1.20107 0.263392 1.83696 0 2.5 0L12.5 0C13.163 0 13.7989 0.263392 14.2678 0.732233C14.7366 1.20107 15 1.83696 15 2.5V10C15 10.663 14.7366 11.2989 14.2678 11.7678C13.7989 12.2366 13.163 12.5 12.5 12.5H10.7169L8.3125 14.4875C8.08975 14.684 7.80263 14.7918 7.50562 14.7906ZM2.5 1.25C2.16848 1.25 1.85054 1.3817 1.61612 1.61612C1.3817 1.85054 1.25 2.16848 1.25 2.5V10C1.25 10.3315 1.3817 10.6495 1.61612 10.8839C1.85054 11.1183 2.16848 11.25 2.5 11.25H4.55562C4.70291 11.25 4.84545 11.302 4.95813 11.3969L7.48688 13.5281L10.0944 11.3931C10.2064 11.3006 10.3472 11.25 10.4925 11.25H12.5C12.8315 11.25 13.1495 11.1183 13.3839 10.8839C13.6183 10.6495 13.75 10.3315 13.75 10V2.5C13.75 2.16848 13.6183 1.85054 13.3839 1.61612C13.1495 1.3817 12.8315 1.25 12.5 1.25H2.5Z" fill="black"/>
</g>
<defs>
<clipPath id="clip0_891_2044">
<rect width="15" height="15" fill="white"/>
</clipPath>
</defs>
</svg>
