<svg width="55" height="55" viewBox="0 0 55 55" fill="none" xmlns="http://www.w3.org/2000/svg">
<mask id="mask0_1088_1270" style="mask-type:alpha" maskUnits="userSpaceOnUse" x="0" y="0" width="55" height="55">
<rect width="55" height="55" fill="#D9D9D9"/>
</mask>
<g mask="url(#mask0_1088_1270)">
<path d="M35.5207 25.2083C36.4756 25.2083 37.2872 24.874 37.9556 24.2056C38.624 23.5372 38.9582 22.7256 38.9582 21.7708C38.9582 20.8159 38.624 20.0043 37.9556 19.3359C37.2872 18.6675 36.4756 18.3333 35.5207 18.3333C34.5659 18.3333 33.7543 18.6675 33.0859 19.3359C32.4175 20.0043 32.0833 20.8159 32.0833 21.7708C32.0833 22.7256 32.4175 23.5372 33.0859 24.2056C33.7543 24.874 34.5659 25.2083 35.5207 25.2083ZM19.4791 25.2083C20.4339 25.2083 21.2456 24.874 21.914 24.2056C22.5824 23.5372 22.9166 22.7256 22.9166 21.7708C22.9166 20.8159 22.5824 20.0043 21.914 19.3359C21.2456 18.6675 20.4339 18.3333 19.4791 18.3333C18.5242 18.3333 17.7126 18.6675 17.0442 19.3359C16.3758 20.0043 16.0416 20.8159 16.0416 21.7708C16.0416 22.7256 16.3758 23.5372 17.0442 24.2056C17.7126 24.874 18.5242 25.2083 19.4791 25.2083ZM27.4999 40.1041C30.0971 40.1041 32.4556 39.3688 34.5754 37.8984C36.6952 36.4279 38.2326 34.4895 39.1874 32.0833H35.4062C34.5659 33.4964 33.4487 34.6136 32.0546 35.4348C30.6605 36.256 29.1423 36.6666 27.4999 36.6666C25.8576 36.6666 24.3393 36.256 22.9452 35.4348C21.5511 34.6136 20.4339 33.4964 19.5937 32.0833H15.8124C16.7673 34.4895 18.3046 36.4279 20.4244 37.8984C22.5442 39.3688 24.9027 40.1041 27.4999 40.1041ZM27.4999 50.4166C24.3298 50.4166 21.3506 49.815 18.5624 48.6119C15.7742 47.4088 13.3489 45.776 11.2864 43.7135C9.22388 41.651 7.59106 39.2256 6.38794 36.4374C5.18481 33.6492 4.58325 30.6701 4.58325 27.4999C4.58325 24.3298 5.18481 21.3506 6.38794 18.5624C7.59106 15.7742 9.22388 13.3489 11.2864 11.2864C13.3489 9.22388 15.7742 7.59106 18.5624 6.38794C21.3506 5.18481 24.3298 4.58325 27.4999 4.58325C30.6701 4.58325 33.6492 5.18481 36.4374 6.38794C39.2256 7.59106 41.651 9.22388 43.7135 11.2864C45.776 13.3489 47.4088 15.7742 48.6119 18.5624C49.815 21.3506 50.4166 24.3298 50.4166 27.4999C50.4166 30.6701 49.815 33.6492 48.6119 36.4374C47.4088 39.2256 45.776 41.651 43.7135 43.7135C41.651 45.776 39.2256 47.4088 36.4374 48.6119C33.6492 49.815 30.6701 50.4166 27.4999 50.4166ZM27.4999 45.8332C32.618 45.8332 36.953 44.0572 40.5051 40.5051C44.0572 36.953 45.8332 32.618 45.8332 27.4999C45.8332 22.3819 44.0572 18.0468 40.5051 14.4947C36.953 10.9426 32.618 9.16658 27.4999 9.16658C22.3819 9.16658 18.0468 10.9426 14.4947 14.4947C10.9426 18.0468 9.16658 22.3819 9.16658 27.4999C9.16658 32.618 10.9426 36.953 14.4947 40.5051C18.0468 44.0572 22.3819 45.8332 27.4999 45.8332Z" fill="#867E7B"/>
</g>
</svg>
