<svg width="47" height="47" viewBox="0 0 47 47" fill="none" xmlns="http://www.w3.org/2000/svg">
<path d="M31.5215 21.2083C32.4763 21.2083 33.288 20.8741 33.9564 20.2056C34.6248 19.5372 34.959 18.7256 34.959 17.7708C34.959 16.8159 34.6248 16.0043 33.9564 15.3359C33.288 14.6675 32.4763 14.3333 31.5215 14.3333C30.5666 14.3333 29.755 14.6675 29.0866 15.3359C28.4182 16.0043 28.084 16.8159 28.084 17.7708C28.084 18.7256 28.4182 19.5372 29.0866 20.2056C29.755 20.8741 30.5666 21.2083 31.5215 21.2083ZM15.4798 21.2083C16.4347 21.2083 17.2463 20.8741 17.9147 20.2056C18.5831 19.5372 18.9173 18.7256 18.9173 17.7708C18.9173 16.8159 18.5831 16.0043 17.9147 15.3359C17.2463 14.6675 16.4347 14.3333 15.4798 14.3333C14.525 14.3333 13.7133 14.6675 13.0449 15.3359C12.3765 16.0043 12.0423 16.8159 12.0423 17.7708C12.0423 18.7256 12.3765 19.5372 13.0449 20.2056C13.7133 20.8741 14.525 21.2083 15.4798 21.2083ZM23.5006 36.1041C26.0979 36.1041 28.4564 35.3688 30.5762 33.8984C32.696 32.4279 34.2333 30.4895 35.1881 28.0833H31.4069C30.5666 29.4964 29.4494 30.6136 28.0553 31.4348C26.6612 32.256 25.143 32.6666 23.5006 32.6666C21.8583 32.6666 20.3401 32.256 18.946 31.4348C17.5519 30.6136 16.4347 29.4964 15.5944 28.0833H11.8132C12.768 30.4895 14.3053 32.4279 16.4251 33.8984C18.5449 35.3688 20.9034 36.1041 23.5006 36.1041ZM23.5006 46.4166C20.3305 46.4166 17.3513 45.815 14.5631 44.6119C11.775 43.4088 9.34961 41.776 7.28711 39.7135C5.22461 37.651 3.5918 35.2256 2.38867 32.4374C1.18555 29.6492 0.583984 26.6701 0.583984 23.4999C0.583984 20.3298 1.18555 17.3506 2.38867 14.5624C3.5918 11.7742 5.22461 9.34888 7.28711 7.28638C9.34961 5.22388 11.775 3.59106 14.5631 2.38794C17.3513 1.18481 20.3305 0.583252 23.5006 0.583252C26.6708 0.583252 29.65 1.18481 32.4382 2.38794C35.2263 3.59106 37.6517 5.22388 39.7142 7.28638C41.7767 9.34888 43.4095 11.7742 44.6126 14.5624C45.8158 17.3506 46.4173 20.3298 46.4173 23.4999C46.4173 26.6701 45.8158 29.6492 44.6126 32.4374C43.4095 35.2256 41.7767 37.651 39.7142 39.7135C37.6517 41.776 35.2263 43.4088 32.4382 44.6119C29.65 45.815 26.6708 46.4166 23.5006 46.4166ZM23.5006 41.8332C28.6187 41.8332 32.9538 40.0572 36.5059 36.5051C40.0579 32.953 41.834 28.618 41.834 23.4999C41.834 18.3819 40.0579 14.0468 36.5059 10.4947C32.9538 6.94263 28.6187 5.16658 23.5006 5.16658C18.3826 5.16658 14.0475 6.94263 10.4954 10.4947C6.94336 14.0468 5.16732 18.3819 5.16732 23.4999C5.16732 28.618 6.94336 32.953 10.4954 36.5051C14.0475 40.0572 18.3826 41.8332 23.5006 41.8332Z" fill="#E63B00"/>
</svg>
