<svg width="37" height="47" viewBox="0 0 37 47" fill="none" xmlns="http://www.w3.org/2000/svg">
<path d="M0.166016 39.5418V34.9585H4.74935V18.9168C4.74935 15.7467 5.70421 12.9298 7.61393 10.4663C9.52365 8.00277 12.0063 6.38905 15.0618 5.62516V4.021C15.0618 3.06613 15.3961 2.2545 16.0645 1.5861C16.7329 0.917697 17.5445 0.583496 18.4993 0.583496C19.4542 0.583496 20.2658 0.917697 20.9342 1.5861C21.6026 2.2545 21.9368 3.06613 21.9368 4.021V5.62516C24.9924 6.38905 27.475 8.00277 29.3848 10.4663C31.2945 12.9298 32.2494 15.7467 32.2494 18.9168V34.9585H36.8327V39.5418H0.166016ZM18.4993 46.4168C17.2389 46.4168 16.1599 45.968 15.2624 45.0705C14.3648 44.1729 13.916 43.0939 13.916 41.8335H23.0827C23.0827 43.0939 22.6339 44.1729 21.7363 45.0705C20.8388 45.968 19.7598 46.4168 18.4993 46.4168ZM9.33268 34.9585H27.666V18.9168C27.666 16.396 26.7684 14.238 24.9733 12.4429C23.1782 10.6477 21.0202 9.75016 18.4993 9.75016C15.9785 9.75016 13.8205 10.6477 12.0254 12.4429C10.2303 14.238 9.33268 16.396 9.33268 18.9168V34.9585Z" fill="#1C1B1F"/>
</svg>
