<svg width="25" height="24" viewBox="0 0 25 24" fill="none" xmlns="http://www.w3.org/2000/svg">
<mask id="mask0_1075_2786" style="mask-type:alpha" maskUnits="userSpaceOnUse" x="0" y="0" width="25" height="24">
<rect x="0.242188" width="24" height="24" fill="#D9D9D9"/>
</mask>
<g mask="url(#mask0_1075_2786)">
<path d="M4.24219 18V10V10.325V6V18ZM18.1422 20.5L14.6422 17C14.4255 16.7833 14.2714 16.55 14.1797 16.3C14.088 16.05 14.0422 15.8 14.0422 15.55C14.0422 15.0167 14.2339 14.5417 14.6172 14.125C15.0005 13.7083 15.4922 13.5 16.0922 13.5C16.5589 13.5 16.9255 13.6083 17.1922 13.825C17.4589 14.0417 17.7755 14.3333 18.1422 14.7C18.4755 14.3667 18.7797 14.0833 19.0547 13.85C19.3297 13.6167 19.7089 13.5 20.1922 13.5C20.8089 13.5 21.3047 13.7125 21.6797 14.1375C22.0547 14.5625 22.2422 15.0417 22.2422 15.575C22.2422 15.825 22.1922 16.075 22.0922 16.325C21.9922 16.575 21.8422 16.8 21.6422 17L18.1422 20.5ZM4.24219 8H20.2422V6H4.24219V8ZM11.8172 20H4.24219C3.69219 20 3.22135 19.8042 2.82969 19.4125C2.43802 19.0208 2.24219 18.55 2.24219 18V6C2.24219 5.45 2.43802 4.97917 2.82969 4.5875C3.22135 4.19583 3.69219 4 4.24219 4H20.2422C20.7922 4 21.263 4.19583 21.6547 4.5875C22.0464 4.97917 22.2422 5.45 22.2422 6V11.325C21.6589 10.9083 21.0214 10.5833 20.3297 10.35C19.638 10.1167 18.9089 10 18.1422 10C17.1922 10 16.2964 10.1792 15.4547 10.5375C14.613 10.8958 13.8755 11.3833 13.2422 12H4.24219V18H11.2172C11.2672 18.35 11.3422 18.6917 11.4422 19.025C11.5422 19.3583 11.6672 19.6833 11.8172 20Z" fill="black"/>
</g>
</svg>
