<svg width="25" height="25" viewBox="0 0 25 25" fill="none" xmlns="http://www.w3.org/2000/svg">
<mask id="mask0_1075_2900" style="mask-type:alpha" maskUnits="userSpaceOnUse" x="0" y="0" width="25" height="25">
<rect x="0.527344" y="0.51123" width="24" height="24" fill="#D9D9D9"/>
</mask>
<g mask="url(#mask0_1075_2900)">
<path d="M11.5273 17.5112H7.52734C6.14401 17.5112 4.96484 17.0237 3.98984 16.0487C3.01484 15.0737 2.52734 13.8946 2.52734 12.5112C2.52734 11.1279 3.01484 9.94873 3.98984 8.97373C4.96484 7.99873 6.14401 7.51123 7.52734 7.51123H11.5273V9.51123H7.52734C6.69401 9.51123 5.98568 9.8029 5.40234 10.3862C4.81901 10.9696 4.52734 11.6779 4.52734 12.5112C4.52734 13.3446 4.81901 14.0529 5.40234 14.6362C5.98568 15.2196 6.69401 15.5112 7.52734 15.5112H11.5273V17.5112ZM8.52734 13.5112V11.5112H16.5273V13.5112H8.52734ZM13.5273 17.5112V15.5112H17.5273C18.3607 15.5112 19.069 15.2196 19.6523 14.6362C20.2357 14.0529 20.5273 13.3446 20.5273 12.5112C20.5273 11.6779 20.2357 10.9696 19.6523 10.3862C19.069 9.8029 18.3607 9.51123 17.5273 9.51123H13.5273V7.51123H17.5273C18.9107 7.51123 20.0898 7.99873 21.0648 8.97373C22.0398 9.94873 22.5273 11.1279 22.5273 12.5112C22.5273 13.8946 22.0398 15.0737 21.0648 16.0487C20.0898 17.0237 18.9107 17.5112 17.5273 17.5112H13.5273Z" fill="#1C1B1F"/>
</g>
</svg>
