<svg width="25" height="25" viewBox="0 0 25 25" fill="none" xmlns="http://www.w3.org/2000/svg">
<mask id="mask0_1075_2844" style="mask-type:alpha" maskUnits="userSpaceOnUse" x="0" y="0" width="25" height="25">
<rect x="0.126953" y="0.27832" width="24" height="24" fill="#D9D9D9"/>
</mask>
<g mask="url(#mask0_1075_2844)">
<path d="M5.97695 17.3783C6.82695 16.7283 7.77695 16.2158 8.82695 15.8408C9.87695 15.4658 10.977 15.2783 12.127 15.2783C13.277 15.2783 14.377 15.4658 15.427 15.8408C16.477 16.2158 17.427 16.7283 18.277 17.3783C18.8603 16.695 19.3145 15.92 19.6395 15.0533C19.9645 14.1867 20.127 13.2617 20.127 12.2783C20.127 10.0617 19.3478 8.17415 17.7895 6.61582C16.2311 5.05749 14.3436 4.27832 12.127 4.27832C9.91029 4.27832 8.02279 5.05749 6.46445 6.61582C4.90612 8.17415 4.12695 10.0617 4.12695 12.2783C4.12695 13.2617 4.28945 14.1867 4.61445 15.0533C4.93945 15.92 5.39362 16.695 5.97695 17.3783ZM12.127 13.2783C11.1436 13.2783 10.3145 12.9408 9.63945 12.2658C8.96445 11.5908 8.62695 10.7617 8.62695 9.77832C8.62695 8.79499 8.96445 7.96582 9.63945 7.29082C10.3145 6.61582 11.1436 6.27832 12.127 6.27832C13.1103 6.27832 13.9395 6.61582 14.6145 7.29082C15.2895 7.96582 15.627 8.79499 15.627 9.77832C15.627 10.7617 15.2895 11.5908 14.6145 12.2658C13.9395 12.9408 13.1103 13.2783 12.127 13.2783ZM12.127 22.2783C10.7436 22.2783 9.44362 22.0158 8.22695 21.4908C7.01029 20.9658 5.95195 20.2533 5.05195 19.3533C4.15195 18.4533 3.43945 17.395 2.91445 16.1783C2.38945 14.9617 2.12695 13.6617 2.12695 12.2783C2.12695 10.895 2.38945 9.59499 2.91445 8.37832C3.43945 7.16165 4.15195 6.10332 5.05195 5.20332C5.95195 4.30332 7.01029 3.59082 8.22695 3.06582C9.44362 2.54082 10.7436 2.27832 12.127 2.27832C13.5103 2.27832 14.8103 2.54082 16.027 3.06582C17.2436 3.59082 18.302 4.30332 19.202 5.20332C20.102 6.10332 20.8145 7.16165 21.3395 8.37832C21.8645 9.59499 22.127 10.895 22.127 12.2783C22.127 13.6617 21.8645 14.9617 21.3395 16.1783C20.8145 17.395 20.102 18.4533 19.202 19.3533C18.302 20.2533 17.2436 20.9658 16.027 21.4908C14.8103 22.0158 13.5103 22.2783 12.127 22.2783ZM12.127 20.2783C13.0103 20.2783 13.8436 20.1492 14.627 19.8908C15.4103 19.6325 16.127 19.2617 16.777 18.7783C16.127 18.295 15.4103 17.9242 14.627 17.6658C13.8436 17.4075 13.0103 17.2783 12.127 17.2783C11.2436 17.2783 10.4103 17.4075 9.62695 17.6658C8.84362 17.9242 8.12695 18.295 7.47695 18.7783C8.12695 19.2617 8.84362 19.6325 9.62695 19.8908C10.4103 20.1492 11.2436 20.2783 12.127 20.2783ZM12.127 11.2783C12.5603 11.2783 12.9186 11.1367 13.202 10.8533C13.4853 10.57 13.627 10.2117 13.627 9.77832C13.627 9.34499 13.4853 8.98665 13.202 8.70332C12.9186 8.41999 12.5603 8.27832 12.127 8.27832C11.6936 8.27832 11.3353 8.41999 11.052 8.70332C10.7686 8.98665 10.627 9.34499 10.627 9.77832C10.627 10.2117 10.7686 10.57 11.052 10.8533C11.3353 11.1367 11.6936 11.2783 12.127 11.2783Z" fill="black"/>
</g>
</svg>
