<svg width="25" height="25" viewBox="0 0 25 25" fill="none" xmlns="http://www.w3.org/2000/svg">
<mask id="mask0_1075_2825" style="mask-type:alpha" maskUnits="userSpaceOnUse" x="0" y="0" width="25" height="25">
<rect width="25" height="25" fill="#D9D9D9"/>
</mask>
<g mask="url(#mask0_1075_2825)">
<path d="M12.5 4.16667C11.9271 4.16667 11.4366 3.96267 11.0286 3.55469C10.6207 3.1467 10.4167 2.65625 10.4167 2.08333C10.4167 1.51042 10.6207 1.01997 11.0286 0.611979C11.4366 0.203993 11.9271 0 12.5 0C13.0729 0 13.5634 0.203993 13.9714 0.611979C14.3793 1.01997 14.5833 1.51042 14.5833 2.08333C14.5833 2.65625 14.3793 3.1467 13.9714 3.55469C13.5634 3.96267 13.0729 4.16667 12.5 4.16667ZM9.375 19.7917V7.29167C8.33333 7.20486 7.27431 7.07465 6.19792 6.90104C5.12153 6.72743 4.09722 6.51042 3.125 6.25L3.64583 4.16667C5 4.53125 6.44097 4.79601 7.96875 4.96094C9.49653 5.12587 11.0069 5.20833 12.5 5.20833C13.9931 5.20833 15.5035 5.12587 17.0312 4.96094C18.559 4.79601 20 4.53125 21.3542 4.16667L21.875 6.25C20.9028 6.51042 19.8785 6.72743 18.8021 6.90104C17.7257 7.07465 16.6667 7.20486 15.625 7.29167V19.7917H13.5417V13.5417H11.4583V19.7917H9.375ZM8.33333 25C8.03819 25 7.7908 24.9002 7.59115 24.7005C7.39149 24.5009 7.29167 24.2535 7.29167 23.9583C7.29167 23.6632 7.39149 23.4158 7.59115 23.2161C7.7908 23.0165 8.03819 22.9167 8.33333 22.9167C8.62847 22.9167 8.87587 23.0165 9.07552 23.2161C9.27517 23.4158 9.375 23.6632 9.375 23.9583C9.375 24.2535 9.27517 24.5009 9.07552 24.7005C8.87587 24.9002 8.62847 25 8.33333 25ZM12.5 25C12.2049 25 11.9575 24.9002 11.7578 24.7005C11.5582 24.5009 11.4583 24.2535 11.4583 23.9583C11.4583 23.6632 11.5582 23.4158 11.7578 23.2161C11.9575 23.0165 12.2049 22.9167 12.5 22.9167C12.7951 22.9167 13.0425 23.0165 13.2422 23.2161C13.4418 23.4158 13.5417 23.6632 13.5417 23.9583C13.5417 24.2535 13.4418 24.5009 13.2422 24.7005C13.0425 24.9002 12.7951 25 12.5 25ZM16.6667 25C16.3715 25 16.1241 24.9002 15.9245 24.7005C15.7248 24.5009 15.625 24.2535 15.625 23.9583C15.625 23.6632 15.7248 23.4158 15.9245 23.2161C16.1241 23.0165 16.3715 22.9167 16.6667 22.9167C16.9618 22.9167 17.2092 23.0165 17.4089 23.2161C17.6085 23.4158 17.7083 23.6632 17.7083 23.9583C17.7083 24.2535 17.6085 24.5009 17.4089 24.7005C17.2092 24.9002 16.9618 25 16.6667 25Z" fill="black"/>
</g>
</svg>
