<svg width="25" height="24" viewBox="0 0 25 24" fill="none" xmlns="http://www.w3.org/2000/svg">
<mask id="mask0_1075_2805" style="mask-type:alpha" maskUnits="userSpaceOnUse" x="0" y="0" width="25" height="24">
<rect x="0.535156" width="24" height="24" fill="#D9D9D9"/>
</mask>
<g mask="url(#mask0_1075_2805)">
<path d="M3.53516 23L6.33516 8.9L4.53516 9.6V13H2.53516V8.3L7.58516 6.15C8.06849 5.95 8.56016 5.92917 9.06016 6.0875C9.56016 6.24583 9.95182 6.55 10.2352 7L11.2352 8.6C11.6852 9.31667 12.281 9.89583 13.0227 10.3375C13.7643 10.7792 14.6018 11 15.5352 11V13C14.4352 13 13.406 12.7708 12.4477 12.3125C11.4893 11.8542 10.6852 11.25 10.0352 10.5L9.43516 13.5L11.5352 15.5V23H9.53516V17L7.43516 15L5.63516 23H3.53516ZM10.0352 5.5C9.48516 5.5 9.01432 5.30417 8.62266 4.9125C8.23099 4.52083 8.03516 4.05 8.03516 3.5C8.03516 2.95 8.23099 2.47917 8.62266 2.0875C9.01432 1.69583 9.48516 1.5 10.0352 1.5C10.5852 1.5 11.056 1.69583 11.4477 2.0875C11.8393 2.47917 12.0352 2.95 12.0352 3.5C12.0352 4.05 11.8393 4.52083 11.4477 4.9125C11.056 5.30417 10.5852 5.5 10.0352 5.5ZM20.0352 23L18.9852 21.95L19.6852 21.25H14.5352V19.75H19.6852L18.9852 19.05L20.0352 18L22.5352 20.5L20.0352 23ZM17.0352 18.75L14.5352 16.25L17.0352 13.75L18.0852 14.8L17.3852 15.5H22.5352V17H17.3852L18.0852 17.7L17.0352 18.75Z" fill="black"/>
</g>
</svg>
